<?xml version="1.0" encoding="utf-8"?>
<!-- Generator: Adobe Illustrator 24.0.1, SVG Export Plug-In . SVG Version: 6.00 Build 0)  -->
<svg version="1.1" xmlns="http://www.w3.org/2000/svg" xmlns:xlink="http://www.w3.org/1999/xlink" x="0px" y="0px"
	 viewBox="0 0 320 1690" style="enable-background:new 0 0 320 1690;" xml:space="preserve">
<style type="text/css">
	.st0{fill:#D4EAFF;}
	.st1{fill:#E3F0FF;}
	.st2{fill:url(#SVGID_1_);}
</style>
<g id="Camada_1">
	<g transform="matrix(1 0 0 1 0 -1566 )">
		<path class="st0" d="M313,1626c2.1,1.4,4.8,1.9,7,2.2c0,15.1,0,30.3,0,45.6H0v-50c3.7-1,9.9-3.1,16.4-6.3
			c24.7-12.5,19.8-26.5,41-39.1c14-8.3,33.7-12.7,51.1-10.9c6.7,0.6,12.9,2.8,25.3,7c30.6,10.3,33.2,16.2,51.6,18.9
			c7.1,1,18.3,2.7,31.1,0c11.1-2.3,16.9-6.6,33.2-8.7c5.3-0.6,8.4-1.1,12.6-0.9c20,0.8,33,12.4,35.4,14.6c1.8,1.7,4.6,4.4,6.9,8.4
			C309.5,1615.6,306.5,1622.1,313,1626z"/>
	</g>
	<g transform="matrix(1 0 0 1 0 -3432 )">
		<path class="st1" d="M320,5047.3L320,5047.3v38.1c-14.1,8.1-28.5,18.2-37.6,23.1c-23.6,13.1-48.9,13.4-61.6,13.5
			c-10.5,0.3-22.7-2-46.7-6.4c-11.2-2-20-3.7-26.9-5.2c-11.4-2.4-18-4.4-23.2-5.6c-6.3-1.5-10.4-2.1-18-1.9
			c-19.8,0.4-40.6,9.1-58.8,6.7c-9.6-1.1-18.4-4.1-18.4-4.1c-5.4-1.7-9.2-3.1-13.3-5.7c-8.5-5.2-10.6-11-15.5-13.2V5047L320,5047.3
			L320,5047.3z"/>
	</g>
	<g transform="matrix(1 0 0 1 0 -1587 )">
		
			<linearGradient id="SVGID_1_" gradientUnits="userSpaceOnUse" x1="-301.4932" y1="4703.6108" x2="624.2275" y2="5649.936" gradientTransform="matrix(1 0 0 -1 0 7624.7788)">
			<stop  offset="0" style="stop-color:#002B89"/>
			<stop  offset="0.19" style="stop-color:#012F8C"/>
			<stop  offset="0.37" style="stop-color:#063B96"/>
			<stop  offset="0.55" style="stop-color:#0D4FA7"/>
			<stop  offset="0.73" style="stop-color:#166BBE"/>
			<stop  offset="0.91" style="stop-color:#238EDB"/>
			<stop  offset="1" style="stop-color:#2AA2EC"/>
		</linearGradient>
		<path class="st2" d="M316.4,1669.7c1.2,1.1,2.4,2.1,3.6,3.1v1562.5c-17.2,7.7-29.3,18.6-48.6,25.9c-25.4,9.5-64.5,11.6-94.5,4.9
			c-18.8-4-34.9-11.4-55.9-12.3c-34-1.3-45.5,8.3-70.9,4.1c-17.4-2.8-34.8-11.2-41.7-19.4c-2-2.3-3.8-5.5-8.4-9V1663.5
			c25-11,37-35.7,59.8-50.5c23.6-15.1,59.6-18.6,87.4-7.9c17.4,6.5,32.3,18.3,51.6,19.6c31.5,2.3,42-13.2,65.6-6.7
			c16.2,4.5,32.2,17.8,38.7,31C305.6,1654.1,307.8,1661.5,316.4,1669.7z"/>
	</g>
</g>
<g id="Camada_2">
</g>
</svg>
