<?xml version="1.0" encoding="utf-8"?>
<!-- Generator: Adobe Illustrator 24.0.1, SVG Export Plug-In . SVG Version: 6.00 Build 0)  -->
<svg version="1.1" id="Camada_1" xmlns="http://www.w3.org/2000/svg" xmlns:xlink="http://www.w3.org/1999/xlink" x="0px" y="0px"
	 viewBox="0 0 320 458" style="enable-background:new 0 0 320 458;" xml:space="preserve">
<style type="text/css">
	.st0{fill:#FFFFFF;}
</style>
<g transform="matrix(1 0 0 1 0 -2303 )">
	<path class="st0" d="M320,2327.5c-15.4-6.8-28.8-17.9-46-22.2c-39.6-10-79.2,18-120.9,17.2c-22.3-0.4-42.9-9.2-64.9-12.1
		c-31.9-4.3-66.2,4.9-88.3,22.8v400.3c30.4,14.1,64.7,24.1,100,23c40.4-1.2,80.8-16.8,120-9.2c18.8,3.6,36,12.6,55.4,13.6
		c15.8,0.9,31.5-3.6,44.6-10.5v-422.9H320z"/>
</g>
</svg>
