<?xml version="1.0" encoding="utf-8"?>
<!-- Generator: Adobe Illustrator 19.0.0, SVG Export Plug-In . SVG Version: 6.00 Build 0)  -->
<svg version="1.1" id="Layer_1" xmlns="http://www.w3.org/2000/svg" xmlns:xlink="http://www.w3.org/1999/xlink" x="0px" y="0px"
	 viewBox="0 0 116 107.5" style="enable-background:new 0 0 116 107.5;" xml:space="preserve">
<style type="text/css">
	.st0{fill:#71B9E7;}
</style>
<path id="XMLID_1457_" class="st0" d="M94.8,29.3c-0.1-0.1,0-0.1-0.1-0.1l0.1-0.1L60.1,11.2l0,0c-0.9-0.5-2-0.5-3,0L22.3,29
	c-1.1,0.6-2.4,1.6-2.5,2.8c0,0.1-0.7,0.2-0.7,0.3v43.6c0,1.2,1.4,2.3,2.5,2.9l35.2,17.8c0,0,0.3,0,0.3,0c0,0,0.1,0,0.2,0
	c0,0,0.1,0,0.1,0c0.1,0,0.2,0.1,0.3,0.1c0.1,0,0.1,0,0.2,0c0,0,0.1,0,0.1,0c0,0,0.1,0,0.1,0c0,0,0,0,0,0c0,0,0.1,0,0.1,0
	c0.1,0,0.3,0,0.4,0c0.1,0,0.3,0,0.4,0c0,0,0.1,0,0.1,0c0,0,0,0,0,0c0,0,0.1,0,0.1,0c0,0,0.1,0,0.1,0c0.1,0,0.1,0,0.2,0
	c0.1,0,0.2-0.1,0.2-0.1c0,0,0,0,0.1,0c0,0,0.1,0,0.1,0c0,0,0.1,0,0.1,0l34.5-17.8c1.1-0.6,1.5-1.7,1.5-2.9V32
	C96.1,30.9,95.8,29.9,94.8,29.3z M54.1,88.1l-28-14.5V37.4l28,14.5V88.1z M58.6,46.2L30.8,32l27.8-14.2L86.4,32L58.6,46.2z
	 M89.1,73.6l-28,14.5V51.8l28-14.5V73.6z"/>
<g id="XMLID_53_">
</g>
<g id="XMLID_54_">
</g>
<g id="XMLID_55_">
</g>
<g id="XMLID_56_">
</g>
<g id="XMLID_57_">
</g>
<g id="XMLID_58_">
</g>
</svg>
