<?xml version="1.0" encoding="utf-8"?>
<!-- Generator: Adobe Illustrator 24.0.1, SVG Export Plug-In . SVG Version: 6.00 Build 0)  -->
<svg version="1.1" id="Camada_1" xmlns="http://www.w3.org/2000/svg" xmlns:xlink="http://www.w3.org/1999/xlink" x="0px" y="0px"
	 viewBox="0 0 283 285" style="enable-background:new 0 0 283 285;" xml:space="preserve">
<style type="text/css">
	.st0{fill:#D4EAFF;}
	.st1{fill:url(#SVGID_1_);}
	.st2{fill:none;stroke:#FFFFFF;stroke-width:4.3477;stroke-miterlimit:10;}
	.st3{fill:#FFFFFF;}
	.st4{fill:none;stroke:#FFFFFF;stroke-width:5.7969;stroke-miterlimit:10;}
	.st5{fill:none;stroke:#FFFFFF;stroke-width:1.7323;stroke-miterlimit:10;}
</style>
<g transform="matrix(1 0 0 1 -20 -838 )">
	<path class="st0" d="M83.1,850.7c20.7-8,42.8-15,64.8-12c14.4-0.5,26,0.7,40.4,0.2c8.8-0.3,17.7-0.7,26.3,1.2
		c16.2,3.5,30.1,14.5,40.3,27.7c10.2,13.2,17.3,28.6,24.3,43.8c7.8,17,15.6,34.2,20,52.5c2.8,11.8,4.2,24,4.6,36.1
		c0.8,21.6-1.5,44-12.3,62.7c-7.4,12.7-18.4,22.9-29.2,32.9c-8.7,8-17.6,16.1-28.4,20.8c-13.9,6-29.4,5.8-44.5,5.4
		c-9.3-0.2-18.5-0.4-27.8-0.6c-5.5-0.1-11-0.2-16.5-0.8c-7.9-0.9-15.6-2.8-23.2-4.8c-30.3-7.9-62.1-18.8-81.1-44
		c-17-22.8-20.4-53.1-19.8-81.6c0.7-31.4,5.5-62.8,14.2-93c1.9-6.5,4-13,7.5-18.7C51.5,864.2,67.6,856.7,83.1,850.7z"/>
</g>
<g transform="matrix(1 0 0 1 -42 -860 )">
	
		<linearGradient id="SVGID_1_" gradientUnits="userSpaceOnUse" x1="124.1388" y1="896.6658" x2="244.1198" y2="1104.4688" gradientTransform="matrix(1 0 0 -1 0 2005.9685)">
		<stop  offset="0" style="stop-color:#00226D"/>
		<stop  offset="1" style="stop-color:#30539F"/>
	</linearGradient>
	<path class="st1" d="M193.2,1122.5c34-0.9,46.2-4.6,62.7-14.3c8.4-5.4,27.9-19.6,39-46.3c6.5-15.7,7.4-29.3,7.9-37.7
		c1.5-28-6.5-48.8-12.1-62.9c-4.3-10.7-9.2-23.2-19.7-36.2c-22.5-28-52.1-35.7-66.6-39.2c-12.1-3-36.3-8.5-65.7,0.5
		c-11.7,3.6-28.3,8.9-42.7,24.9c-11.2,12.4-15.8,25.4-20.8,39.5c-4.1,11.5-9.9,27.5-9.3,48.3c0.5,16.7,4.2,28.6,8.6,41.6
		c3.9,11.7,10.6,31.2,23,46.7C127.1,1124.3,177.6,1122.9,193.2,1122.5z"/>
</g>
<g id="XMLID_224_">
	<path id="XMLID_222_" class="st2" d="M197.5,110.9c-0.3-2.8-2-6.1-5-7.2c-2.2-0.8-4.5-0.4-6.6,0.8c0,0,0-0.1,0-0.1
		c0-23.6-19.8-42.8-44.3-42.8c-24.3,0-44,18.9-44.3,42.4c-1.8-0.8-3.7-1-5.5-0.3c-3,1.2-4.7,4.4-5,7.2c-0.5,4.4,2.4,8.8,7.2,10.8
		c2.8,1.1,5.5,1.2,7.7,0.3c7.2,13.9,22.4,25.1,39.9,25.1c17.6,0,33.7-11.1,40.7-25.2c2.2,0.9,5.1,1,8-0.2
		C195.1,119.8,198,115.3,197.5,110.9z"/>
	<path id="XMLID_220_" class="st3" d="M103.6,110.4c0,0-2.7-18.9,5.8-32.2c0,0,20.8,7.1,36,6.7c15.3-0.4,25.9-2.5,30.9-4.6
		c0,0,8.6,12.8,4.2,30.1c0,0,5.2-7.6,11.6-6.1c0,0,4-9.3,2.5-18c-0.7-9.8-6.4-12.1-6.4-12.1s-1.7-25.4-46.6-34.2
		c-30.1-2.6-37.7,19.9-37.7,19.9s-20.1,6.8-11.4,43.3C92.5,103.1,100,104.4,103.6,110.4z"/>
	<path id="XMLID_219_" class="st3" d="M114.3,97.9c-0.2,0.1-0.5-0.2-0.3-0.4c1-1.5,3.7-5,7.7-4.9c4.4,0.1,6.6,3.3,7.5,4.9
		c0.1,0.2-0.1,0.5-0.3,0.4c-1.4-0.6-4.6-1.9-7.1-1.9C119.3,96,115.8,97.2,114.3,97.9z"/>
	<path id="XMLID_218_" class="st3" d="M168,97.9c0.2,0.1,0.5-0.2,0.3-0.4c-1-1.5-3.7-5-7.7-4.9c-4.4,0.1-6.6,3.3-7.5,4.9
		c-0.1,0.2,0.1,0.5,0.3,0.4c1.4-0.6,4.6-1.9,7.1-1.9C163.1,96,166.5,97.2,168,97.9z"/>
	<path id="XMLID_217_" class="st3" d="M129.4,131.2h24.9c0,0-3,7.9-11.7,7.9C132.3,139.1,129.4,131.2,129.4,131.2z"/>
	<ellipse id="XMLID_215_" class="st3" cx="121.7" cy="109" rx="4" ry="4"/>
	<ellipse id="XMLID_214_" class="st3" cx="95.2" cy="112.9" rx="4.5" ry="4"/>
	<ellipse id="XMLID_213_" class="st3" cx="189.2" cy="112.9" rx="4.5" ry="4"/>
	<ellipse id="XMLID_212_" class="st3" cx="161.4" cy="109" rx="4" ry="4"/>
	<g id="XMLID_205_">
		<path id="XMLID_81_" class="st3" d="M135.6,119.6c0,0,0.2-0.2,0.4-0.5c0.3-0.3,0.7-0.7,1.3-1.1c0.3-0.2,0.6-0.4,1-0.6
			c0.3-0.2,0.7-0.4,1.2-0.5c0.4-0.2,0.8-0.3,1.3-0.4c0.5-0.1,0.9-0.2,1.4-0.2c0.5,0,1,0,1.4,0.1c0.2,0,0.5,0.1,0.7,0.2
			c0.2,0,0.4,0.1,0.7,0.2c0.4,0.2,0.8,0.3,1.2,0.5c0.2,0.1,0.3,0.2,0.5,0.3s0.3,0.2,0.5,0.3c0.3,0.2,0.5,0.4,0.7,0.6
			c0.2,0.2,0.4,0.3,0.5,0.5c0.3,0.3,0.4,0.5,0.4,0.5s-0.2-0.2-0.5-0.4c-0.2-0.1-0.3-0.3-0.6-0.4c-0.2-0.2-0.5-0.3-0.8-0.5
			c-0.2-0.1-0.3-0.2-0.5-0.3c-0.2-0.1-0.3-0.2-0.5-0.3c-0.3-0.2-0.7-0.3-1.1-0.4c-0.4-0.1-0.8-0.2-1.2-0.3c-0.4-0.1-0.9-0.1-1.3-0.1
			c-0.4,0-0.9,0-1.3,0.1c-0.4,0.1-0.8,0.2-1.2,0.3c-0.8,0.3-1.5,0.6-2.1,0.9c-0.6,0.3-1.1,0.7-1.4,0.9
			C135.8,119.4,135.6,119.6,135.6,119.6z"/>
	</g>
	<g id="XMLID_154_">
		<circle id="XMLID_199_" class="st3" cx="112" cy="121.9" r="1"/>
		<circle id="XMLID_197_" class="st3" cx="169.4" cy="119" r="1"/>
		<circle id="XMLID_196_" class="st3" cx="125" cy="119" r="1"/>
		<circle id="XMLID_194_" class="st3" cx="164.5" cy="127.8" r="1"/>
		<circle id="XMLID_184_" class="st3" cx="170.1" cy="124.3" r="1"/>
		<circle id="XMLID_179_" class="st3" cx="117.1" cy="119" r="1.1"/>
		<circle id="XMLID_178_" class="st3" cx="159.1" cy="122.9" r="1.1"/>
		<circle id="XMLID_177_" class="st3" cx="120.2" cy="122.2" r="0.9"/>
		<circle id="XMLID_174_" class="st3" cx="165.4" cy="122.9" r="0.9"/>
		<circle id="XMLID_169_" class="st3" cx="118.3" cy="126.5" r="1.2"/>
		<circle id="XMLID_158_" class="st3" cx="125.2" cy="124.3" r="1.2"/>
		<circle id="XMLID_156_" class="st3" cx="161.4" cy="119" r="1.2"/>
	</g>
	<path id="XMLID_148_" class="st4" d="M189.1,235.9H95.2c-1.6,0-3-1.3-3.1-2.9l-5.1-64.1c-0.2-1.8,1.3-3.4,3.1-3.4h104
		c1.8,0,3.3,1.5,3.1,3.4l-5.1,64.1C192.1,234.6,190.7,235.9,189.1,235.9z"/>
	<path id="XMLID_80_" class="st3" d="M169.1,164.4c-3.5-6.9-11.1-12.2-20.4-14.1c-0.3,1.2-3.3,2.1-6.9,2.1c-3.8,0-7-1-7-2.3
		c0,0,0,0,0-0.1c-10,1.7-18.1,7.1-21.8,14.3L169.1,164.4L169.1,164.4z"/>
	<line id="XMLID_69_" class="st5" x1="134.4" y1="151.7" x2="134.4" y2="146.6"/>
	<line id="XMLID_57_" class="st5" x1="149" y1="151.7" x2="149" y2="146.6"/>
	<path id="XMLID_56_" class="st3" d="M85.5,191.5c0,0-3.2,14.3,4.1,19.8c2.8,2.2,4-0.5,4-0.5s4-4.5-1.7-12.1
		c-0.9-0.8-0.8-1.5-0.8-1.5s2.5-5.2-2.4-7.5C85.7,188.2,85.5,191.5,85.5,191.5z"/>
	<path id="XMLID_68_" class="st3" d="M199.4,191.5c0,0,3.2,14.3-4.1,19.8c-2.8,2.2-4-0.5-4-0.5s-4-4.5,1.7-12.1
		c0.9-0.8,0.8-1.5,0.8-1.5s-2.5-5.2,2.4-7.5C199.2,188.2,199.4,191.5,199.4,191.5z"/>
</g>
</svg>
