<?xml version="1.0" encoding="utf-8"?>
<svg version="1.1" xmlns:xlink="http://www.w3.org/1999/xlink" width="23px" height="21px" xmlns="http://www.w3.org/2000/svg">
  <g transform="matrix(1 0 0 1 -269 -21 )">
    <path d="M 21.695652173913 0.963768115942028  C 20.9855072463768 -0.152173913043479  19.3623188405797 -0.152173913043479  18.3478260869565 0.760869565217391  L 11.5507246376812 7.55797101449275  L 4.65217391304348 0.760869565217391  C 3.63768115942029 -0.253623188405798  2.01449275362319 -0.152173913043479  1.30434782608696 0.963768115942028  C 0.594202898550725 1.97826086956522  1.20289855072464 3.09420289855072  2.21739130434783 4.10869565217391  L 8.60869565217391 10.5  L 1.81159420289855 17.2971014492754  C 0.898550724637681 18.3115942028986  0.898550724637681 19.9347826086957  2.01449275362319 20.6449275362319  C 3.02898550724638 21.3550724637681  4.14492753623188 20.7463768115942  5.15942028985507 19.731884057971  L 11.5507246376812 13.3405797101449  L 18.3478260869565 20.1376811594203  C 19.2608695652174 21.0507246376812  20.9855072463768 21.0507246376812  21.695652173913 19.9347826086957  C 22.4057971014493 18.9202898550725  21.7971014492754 17.804347826087  20.7826086956522 16.7898550724638  L 14.3913043478261 10.3985507246377  L 20.7826086956522 4.10869565217391  C 21.7971014492754 3.09420289855072  22.4057971014493 1.97826086956522  21.695652173913 0.963768115942028  Z " fill-rule="nonzero" fill="#6ebaec" stroke="none" transform="matrix(1 0 0 1 269 21 )" />
  </g>
</svg>