<?xml version="1.0" encoding="utf-8"?>
<!-- Generator: Adobe Illustrator 24.0.1, SVG Export Plug-In . SVG Version: 6.00 Build 0)  -->
<svg version="1.1" id="Camada_1" xmlns="http://www.w3.org/2000/svg" xmlns:xlink="http://www.w3.org/1999/xlink" x="0px" y="0px"
	 viewBox="0 0 149.5 160.5" style="enable-background:new 0 0 149.5 160.5;" xml:space="preserve">
<style type="text/css">
	.st0{fill:#FFFFFF;}
</style>
<g transform="matrix(1 0 0 1 -85 -1837 )">
	<path class="st0" d="M211.7,1972.2c0.1,14-11.2,25.3-25.1,25.3h-76.3c-13.9,0-25.2-11.3-24.3-25.2v-84.6
		c-0.9-13.9,10.4-25.2,24.3-25.2h6.7v86.7c-0.6,9.3,7,16.9,16.3,16.2h78.4V1972.2z M109,1949.3V1871c-9.1,1.1-15.6,8.2-15,16.8v84.6
		c-0.6,9.3,7,16.9,16.3,16.2h76.3c8.6,0.7,15.7-5.8,16.8-14h-70C119.5,1974.4,108.2,1963.1,109,1949.3z"/>
</g>
<g transform="matrix(1 0 0 1 -108 -1814 )">
	<path class="st0" d="M257.5,1919.5c0.9,16.3-12.4,29.6-28.7,29.5h-67.6c-16.3,0-29.5-13.3-28.7-29.4v-76.1
		c-0.8-16.2,12.4-29.5,28.7-29.5h67.6c16.3,0,29.5,13.3,28.7,29.5V1919.5z M228.8,1823h-67.6c-11.7-0.7-21.2,8.8-20.7,20.5v76
		c-0.5,11.7,9,21.2,20.7,20.5h67.6c11.7,0.6,21.2-8.8,20.7-20.5v-76C249.9,1831.8,240.4,1822.3,228.8,1823z"/>
</g>
<g transform="matrix(1 0 0 1 -135 -1843 )">
	<path class="st0" d="M210.8,1898.7l11.2-22.8l11.3,22.8l25.1,3.7l-18.2,17.8l4.3,25l-22.5-11.8l-22.5,11.8l4.3-25l-18.2-17.8
		L210.8,1898.7z"/>
</g>
</svg>
