<?xml version="1.0" encoding="utf-8"?>
<!-- Generator: Adobe Illustrator 24.0.1, SVG Export Plug-In . SVG Version: 6.00 Build 0)  -->
<svg version="1.1" id="Camada_1" xmlns="http://www.w3.org/2000/svg" xmlns:xlink="http://www.w3.org/1999/xlink" x="0px" y="0px"
	 viewBox="0 0 226 232" style="enable-background:new 0 0 226 232;" xml:space="preserve">
<style type="text/css">
	.st0{fill:#D4EAFF;}
	.st1{fill:#E3F0FF;}
	.st2{fill:url(#SVGID_1_);}
	.st3{fill:#FFFFFF;}
</style>
<g transform="matrix(1 0 0 1 -47 -4342 )">
	<path class="st0" d="M108.2,4352.3c17.1-4.7,35.2-8.4,52.3-4.2c11.4,0.7,20.6,2.7,32,3.5c7,0.5,14.1,0.9,20.8,3.1
		c12.5,4.1,22.6,13.9,29.6,25.2c7,11.3,11.4,24,15.6,36.7c4.8,14.1,9.6,28.4,11.6,43.2c1.3,9.6,1.3,19.3,0.7,29
		c-1.1,17.2-4.8,34.8-14.9,48.6c-6.9,9.5-16.4,16.7-25.8,23.6c-7.5,5.6-15.3,11.3-24.2,14.1c-11.5,3.6-23.8,2.2-35.7,0.7
		c-7.3-0.9-14.6-1.8-22-2.7c-4.4-0.5-8.7-1.1-13-2c-6.2-1.3-12.1-3.5-18-5.7c-23.3-8.7-47.6-20-60.6-41.5
		c-11.7-19.4-11.9-43.6-9.1-66.2c3.1-24.9,9.5-49.3,18.9-72.5c2-5,4.2-10,7.5-14.2C82.1,4360.4,95.5,4355.8,108.2,4352.3z"/>
</g>
<g transform="matrix(1 0 0 1 -57 -4346 )">
	<path class="st1" d="M253.8,4408.4c-13.1-26.1-41.7-44-71.2-44.3c-16.9-0.6-29.4-8.2-45.7-8.5c-16.3-0.3-33.3,3.9-45.3,15
		c-7.1,6.6-12.1,15.2-16,24c-15.3,33.7-17.7,73-6.9,108.4c2.4,7.8,5.4,15.4,8.4,22.9c1.2,3.1,2.4,6.1,4.1,8.9
		c3,4.9,7.3,8.8,11.8,12.3c22.2,17.5,50,27.8,78.2,28.9c22.2,0.9,44.8-4,63.7-15.7c18.8-11.7,33.5-30.6,38.3-52.3
		c5.6-25.5-2.5-51.8-10.6-76.6C260.1,4423.6,257.5,4415.7,253.8,4408.4z"/>
</g>
<g transform="matrix(1 0 0 1 -66 -4360 )">
	
		<linearGradient id="SVGID_1_" gradientUnits="userSpaceOnUse" x1="120.4334" y1="4390.7725" x2="234.4172" y2="4548.2104" gradientTransform="matrix(1 0 0 -1 0 8951.9688)">
		<stop  offset="0" style="stop-color:#00226D"/>
		<stop  offset="1" style="stop-color:#30539F"/>
	</linearGradient>
	<path class="st2" d="M175,4577.6c27.4,2.1,37.6,0.1,51.7-6.3c7.2-3.6,24.1-13.5,35.3-34.1c6.6-12.1,8.4-23,9.5-29.7
		c3.6-22.5-1.2-39.9-4.5-51.7c-2.5-9-5.5-19.5-12.8-30.8c-15.8-24.4-39-33.1-50.4-37.1c-9.5-3.4-28.5-9.9-53-5.1
		c-9.7,1.9-23.5,4.8-36.5,16.5c-10,9.1-14.8,19.2-20.1,30.1c-4.3,8.9-10.3,21.3-11.5,38.1c-1,13.5,1,23.4,3.5,34.2
		c2.2,9.7,5.9,26.1,14.6,39.6C121.6,4573.5,162.4,4576.6,175,4577.6z"/>
</g>
<g transform="matrix(1 0 0 1 -106 -4396 )">
	<path class="st3" d="M188,4466.2l25.8-16.7c2.2-1.5,5.2-1.5,7.5,0l25.8,16.7l24,15.5c1.7,1.1,0.9,3.6-1.2,3.5h-52.3h-52.3
		c-2.1,0.1-2.9-2.4-1.2-3.5L188,4466.2z"/>
</g>
<g transform="matrix(1 0 0 1 -118 -4438 )">
	<path class="st3" d="M195.4,4591.3c0.1,0.7-0.5,1.3-1.3,1.3h-7.3c-0.7,0-1.3-0.6-1.3-1.3v-57.6c0-0.7,0.6-1.3,1.3-1.3h7.3
		c0.7,0,1.3,0.6,1.3,1.3V4591.3z"/>
</g>
<g transform="matrix(1 0 0 1 -118 -4438 )">
	<path class="st3" d="M245,4591.3c0.1,0.7-0.5,1.3-1.3,1.3h-7.3c-0.7,0-1.3-0.6-1.3-1.3v-57.6c0-0.7,0.6-1.3,1.3-1.3h7.3
		c0.7,0,1.3,0.6,1.3,1.3V4591.3z"/>
</g>
<g transform="matrix(1 0 0 1 -118 -4438 )">
	<path class="st3" d="M219.7,4591.3c0.1,0.7-0.5,1.3-1.3,1.3h-7.3c-0.7,0-1.3-0.6-1.3-1.3v-57.6c0-0.7,0.6-1.3,1.3-1.3h7.3
		c0.7,0,1.3,0.6,1.3,1.3V4591.3z"/>
</g>
<g transform="matrix(1 0 0 1 -118 -4438 )">
	<path class="st3" d="M270.8,4591.3c0.1,0.7-0.5,1.3-1.3,1.3h-7.3c-0.7,0-1.3-0.6-1.3-1.3v-57.6c0-0.7,0.6-1.3,1.3-1.3h7.3
		c0.7,0,1.3,0.6,1.3,1.3V4591.3z"/>
</g>
<g transform="matrix(1 0 0 1 -109 -4503 )">
	<path class="st3" d="M271.1,4668.9c-0.1,2-1.7,3.6-3.6,3.5h-94c-2,0.1-3.6-1.5-3.6-3.5v-4.2c0-2,1.6-3.6,3.6-3.6h94
		c2,0,3.6,1.6,3.6,3.6V4668.9z"/>
</g>
</svg>
