<?xml version="1.0" encoding="utf-8"?>
<!-- Generator: Adobe Illustrator 24.0.1, SVG Export Plug-In . SVG Version: 6.00 Build 0)  -->
<svg version="1.1" id="Camada_1" xmlns="http://www.w3.org/2000/svg" xmlns:xlink="http://www.w3.org/1999/xlink" x="0px" y="0px"
	 viewBox="0 0 226 236.1" style="enable-background:new 0 0 226 236.1;" xml:space="preserve">
<style type="text/css">
	.st0{fill:#D4EAFF;}
	.st1{fill:#E3F0FF;}
	.st2{fill:url(#SVGID_1_);}
	.st3{fill:#FFFFFF;}
</style>
<g transform="matrix(1 0 0 1 -47 -3764 )">
	<path class="st0" d="M124.4,3766.4c17.4-2.7,35.8-4.3,52.4,1.9c11.3,2.1,20.1,5.1,31.4,7.1c6.9,1.3,13.9,2.6,20.3,5.5
		c12,5.5,20.9,16.5,26.5,28.5c5.7,12,8.5,25.2,11.3,38.2c3.1,14.6,6.2,29.3,6.5,44.3c0.2,9.7-0.9,19.3-2.7,28.9
		c-3.1,16.9-8.8,34-20.4,46.6c-8,8.6-18.2,14.6-28.4,20.5c-8.1,4.7-16.5,9.5-25.7,11.2c-11.8,2.3-23.9-0.6-35.5-3.5
		c-7.2-1.8-14.3-3.5-21.5-5.3c-4.3-1-8.5-2.1-12.7-3.5c-6-2-11.6-4.9-17.2-7.7c-22.1-11.4-45-25.4-55.4-48.2
		c-9.4-20.7-6.8-44.9-1.4-67c5.9-24.3,15.1-47.9,27.1-69.9c2.6-4.7,5.3-9.4,9.1-13.2C97.4,3771.4,111.3,3768.4,124.4,3766.4z"/>
</g>
<g transform="matrix(1 0 0 1 -59 -3765 )">
	<path class="st1" d="M264.7,3837.3c-10.2-27.5-36.5-48.6-65.8-52.4c-16.7-2.6-28.3-11.6-44.4-13.8c-16.1-2.2-33.5,0-46.7,9.7
		c-7.8,5.7-13.7,13.7-18.7,22c-19.1,31.7-26.2,70.6-19.5,107c1.5,8,3.6,15.9,5.7,23.8c0.8,3.2,1.7,6.4,3.1,9.3
		c2.4,5.2,6.2,9.6,10.3,13.6c20,20,46.4,33.4,74.5,37.8c21.9,3.4,45,1.3,65.1-8.2s36.9-26.5,44.1-47.5c8.5-24.7,3.5-51.7-1.6-77.4
		C269.1,3853.1,267.5,3845,264.7,3837.3z"/>
</g>
<g transform="matrix(1 0 0 1 -68 -3781 )">
	
		<linearGradient id="SVGID_1_" gradientUnits="userSpaceOnUse" x1="115.0414" y1="3823.8037" x2="246.7783" y2="3967.198" gradientTransform="matrix(1 0 0 -1 0 7796.6963)">
		<stop  offset="0" style="stop-color:#00226D"/>
		<stop  offset="1" style="stop-color:#30539F"/>
	</linearGradient>
	<path class="st2" d="M167.4,3995.6c27,5.3,37.3,4.5,52-0.3c7.6-2.8,25.5-10.6,39-29.7c7.9-11.3,11-21.8,12.9-28.4
		c6.2-21.9,3.5-39.8,1.5-51.8c-1.5-9.2-3.2-20-9.2-32.1c-12.8-26.1-34.9-37.4-45.7-42.7c-9-4.5-27.2-13.2-52-11.2
		c-9.9,0.8-23.9,2.1-38.1,12.2c-11,7.8-17,17.3-23.4,27.5c-5.4,8.3-12.8,19.9-15.9,36.4c-2.5,13.3-1.7,23.4-0.5,34.4
		c1.1,9.9,2.8,26.6,9.9,41C114.7,3985.3,155,3993.1,167.4,3995.6z"/>
</g>
<g transform="matrix(1 0 0 1 -186 -3864 )">
	<path class="st3" d="M344.5,3994.2c0,3.2-2.6,5.9-5.9,5.9h-3.1c-3.3,0-5.9-2.7-5.6-5.9v-24.8c-0.3-3.3,2.4-5.9,5.6-5.9h3.1
		c3.3,0,5.9,2.7,5.9,5.9V3994.2z"/>
</g>
<g transform="matrix(1 0 0 1 -186 -3864 )">
	<path class="st3" d="M269,3958.2c0,3.2-2.6,5.9-5.9,5.9H260c-3.3,0-5.9-2.7-5.6-5.9v-24.8c-0.3-3.3,2.4-5.9,5.6-5.9h3.1
		c3.3,0,5.9,2.7,5.9,5.9V3958.2z"/>
</g>
<g transform="matrix(1 0 0 1 -186 -3864 )">
	<path class="st3" d="M297.5,4030.2c0,3.2-2.6,5.9-5.9,5.9h-3.1c-3.3,0-5.9-2.7-5.6-5.9v-24.8c-0.3-3.3,2.4-5.9,5.6-5.9h3.1
		c3.3,0,5.9,2.7,5.9,5.9V4030.2z"/>
</g>
<g transform="matrix(1 0 0 1 -105 -3876 )">
	<path class="st3" d="M275.1,3993.9c0,3.4-2.8,6.2-6.2,6.1H164.2c-3.4,0.1-6.2-2.7-6.2-6.1v-0.2c0-3.4,2.8-6.2,6.2-6.2h104.7
		c3.4,0,6.2,2.8,6.2,6.2V3993.9z"/>
</g>
<g transform="matrix(1 0 0 1 -105 -3876 )">
	<path class="st3" d="M275.1,3957.9c0,3.4-2.8,6.2-6.2,6.1H164.2c-3.4,0.1-6.2-2.7-6.2-6.1v-0.2c0-3.4,2.8-6.2,6.2-6.2h104.7
		c3.4,0,6.2,2.8,6.2,6.2V3957.9z"/>
</g>
<g transform="matrix(1 0 0 1 -105 -3876 )">
	<path class="st3" d="M275.1,4029.9c0,3.4-2.8,6.2-6.2,6.1H164.2c-3.4,0.1-6.2-2.7-6.2-6.1v-0.2c0-3.4,2.8-6.2,6.2-6.2h104.7
		c3.4,0,6.2,2.8,6.2,6.2V4029.9z"/>
</g>
</svg>
