<?xml version="1.0" encoding="utf-8"?>
<!-- Generator: Adobe Illustrator 19.0.0, SVG Export Plug-In . SVG Version: 6.00 Build 0)  -->
<svg version="1.1" id="Layer_1" xmlns="http://www.w3.org/2000/svg" xmlns:xlink="http://www.w3.org/1999/xlink" x="0px" y="0px"
	 viewBox="0 0 122.8 107.5" style="enable-background:new 0 0 122.8 107.5;" xml:space="preserve">
<style type="text/css">
	.st0{fill:#71B9E7;}
</style>
<g id="XMLID_169_">
	<path id="XMLID_80_" class="st0" d="M22.6,69.1c-0.5-0.3-1.3-0.3-1.8,0l-9.5,5c-0.5,0.3-0.8,0-0.7-0.5L12.4,63
		c0.1-0.5-0.2-1.3-0.5-1.7l-7.7-7.5C3.8,53.5,4,53.1,4.5,53l10.6-1.5c0.5-0.1,1.2-0.5,1.4-1l4.7-9.6c0.2-0.5,0.6-0.5,0.9,0l4.7,9.6
		c0.2,0.5,0.9,1,1.4,1L38.9,53c0.5,0.1,0.7,0.5,0.3,0.8l-7.7,7.5c-0.4,0.4-0.6,1.1-0.5,1.7l1.8,10.5c0.1,0.5-0.2,0.8-0.7,0.5
		L22.6,69.1z"/>
</g>
<g id="XMLID_165_">
	<path id="XMLID_77_" class="st0" d="M102.6,69.1c-0.5-0.3-1.3-0.3-1.8,0l-9.5,5c-0.5,0.3-0.8,0-0.7-0.5L92.4,63
		c0.1-0.5-0.2-1.3-0.5-1.7l-7.7-7.5c-0.4-0.4-0.3-0.8,0.3-0.8l10.6-1.5c0.5-0.1,1.2-0.5,1.4-1l4.7-9.6c0.2-0.5,0.6-0.5,0.9,0
		l4.7,9.6c0.2,0.5,0.9,1,1.4,1l10.6,1.5c0.5,0.1,0.7,0.5,0.3,0.8l-7.7,7.5c-0.4,0.4-0.6,1.1-0.5,1.7l1.8,10.5
		c0.1,0.5-0.2,0.8-0.7,0.5L102.6,69.1z"/>
</g>
<g id="XMLID_181_">
	<g id="XMLID_86_">
		<g id="XMLID_87_">
			<path id="XMLID_88_" class="st0" d="M61.3,21.3c0.6-1.5,1.6-1.5,2.2,0L69,35.7c0.6,1.5,2.4,2.9,4.1,3l15.5,0.8
				c1.6,0.1,1.9,1,0.7,2.1l-12,9.8c-1.3,1-2,3.2-1.6,4.8l4,15c0.4,1.6-0.4,2.2-1.7,1.3l-13-8.4c-1.4-0.9-3.7-0.9-5,0l-13,8.4
				c-1.4,0.9-2.2,0.3-1.7-1.3l4-15c0.4-1.6-0.3-3.8-1.6-4.8l-12-9.8c-1.3-1-1-2,0.7-2.1l15.5-0.8c1.6-0.1,3.5-1.4,4.1-3L61.3,21.3z"
				/>
		</g>
	</g>
</g>
<g id="XMLID_63_">
</g>
<g id="XMLID_65_">
</g>
<g id="XMLID_66_">
</g>
<g id="XMLID_67_">
</g>
<g id="XMLID_69_">
</g>
<g id="XMLID_70_">
</g>
</svg>
