<?xml version="1.0" encoding="utf-8"?>
<!-- Generator: Adobe Illustrator 24.0.1, SVG Export Plug-In . SVG Version: 6.00 Build 0)  -->
<svg version="1.1" id="Camada_1" xmlns="http://www.w3.org/2000/svg" xmlns:xlink="http://www.w3.org/1999/xlink" x="0px" y="0px"
	 viewBox="0 0 320 415" style="enable-background:new 0 0 320 415;" xml:space="preserve">
<style type="text/css">
	.st0{fill:#FFFFFF;}
</style>
<g transform="matrix(1 0 0 1 0 -2303 )">
	<path class="st0" d="M320,2325.2c-15.4-6.2-28.8-16.2-46-20.1c-39.6-9.1-79.2,16.3-120.9,15.6c-22.3-0.4-42.9-8.3-64.9-11
		c-31.9-3.9-66.2,4.4-88.3,20.7V2693c30.4,12.8,64.7,21.8,100,20.8c40.4-1.1,80.8-15.2,120-8.3c18.8,3.3,36,11.4,55.4,12.3
		c15.8,0.8,31.5-3.3,44.6-9.5V2325.2z M237,2458.3h0.2c0,7.8-6.6,14.2-14.7,14.7h-133c-8.1-0.6-14.7-6.9-14.5-14.7v-83.6
		c-0.2-7.8,6.4-14.2,14.5-13.7h34.2c0.1-4.3,3.4-7.3,7.3-7h43.5c4-0.3,7.2,2.7,7.3,7h40.6c8.1-0.5,14.7,5.8,14.6,13.7V2458.3z"/>
</g>
</svg>
