<?xml version="1.0" encoding="utf-8"?>
<!-- Generator: Adobe Illustrator 24.0.1, SVG Export Plug-In . SVG Version: 6.00 Build 0)  -->
<svg version="1.1" id="Camada_1" xmlns="http://www.w3.org/2000/svg" xmlns:xlink="http://www.w3.org/1999/xlink" x="0px" y="0px"
	 viewBox="0 0 600 600" style="enable-background:new 0 0 600 600;" xml:space="preserve">
<style type="text/css">
	.st0{fill:#1875EF;}
</style>
<g id="Back">
</g>
<g id="Camada_1_1_">
	<g>
		<path d="M301.6,0c22.5,0,39.6,33,59.9,39.6c21.1,6.8,54.2-9.6,71.7,3.2c17.7,12.9,12.3,49.5,25.1,67.2
			c12.8,17.5,49.4,23.6,56.2,44.7c6.6,20.3-19.2,46.7-19.2,69.2c0,22.5,25.8,48.9,19.2,69.2c-6.8,21.1-43.4,27.1-56.2,44.7
			c-12.9,17.7-7.4,54.4-25.1,67.2c-17.5,12.8-50.7-3.7-71.7,3.2c-20.3,6.6-37.4,39.6-59.9,39.6c-22.5,0-39.6-33-59.9-39.6
			c-21.1-6.8-54.2,9.6-71.7-3.2c-17.7-12.9-12.3-49.5-25.1-67.2c-12.8-17.5-49.4-23.6-56.2-44.7c-6.6-20.3,19.2-46.7,19.2-69.2
			c0-22.5-25.8-48.9-19.2-69.2c6.8-21.1,43.4-27.1,56.2-44.7c12.9-17.7,7.4-54.4,25.1-67.2c17.5-12.8,50.7,3.7,71.7-3.2
			C262.1,33,279.1,0,301.6,0z"/>
	</g>
	<circle class="st0" cx="301.6" cy="223.8" r="137.9"/>
	<path d="M257.3,291.7c0.6-3.9,1.2-7.5,1.9-11.1c2-11.9,4.1-23.8,6.2-35.7c0.3-1.8-0.1-3-1.4-4.2c-10.6-10.3-21.2-20.6-31.8-30.9
		c-0.6-0.6-1.2-1.3-2.2-2.2c5.3-0.8,10.1-1.5,15-2.2c11-1.6,22.1-3.3,33.1-4.8c1.5-0.2,1.8-1.2,2.3-2.2
		c6.7-13.6,13.4-27.2,20.1-40.8c0.3-0.5,0.5-1,0.8-1.5c1,0.1,1,1,1.3,1.6c6.7,13.6,13.5,27.2,20.1,40.8c0.7,1.4,1.5,2,3.1,2.2
		c15.3,2.2,30.5,4.4,45.7,6.6c0.4,0.1,0.8,0.1,1.7,0.9c-1,0.8-2.2,1.6-3.1,2.5c-10.3,10-20.6,20.1-30.9,30c-1.4,1.3-1.7,2.5-1.4,4.3
		c2.6,14.7,5.1,29.4,7.6,44.1c0.1,0.7,0.1,1.4,0.2,2.2c-0.9,0.3-1.5-0.3-2.1-0.6c-13.2-6.9-26.5-13.8-39.6-20.9
		c-1.8-1-3.1-0.9-4.9,0.1c-13,6.9-26.1,13.8-39.2,20.7C259.2,290.9,258.4,291.2,257.3,291.7z"/>
	<path d="M360.3,449.4c0,30.7,0,62.3,0,93.9c0,1.7,0.1,3.6-0.7,5c-12.4,22.6-31,39.2-53.4,51c-4,2.1-11.3-1.3-16.8-3
		c-2.6-0.8-4.8-3.4-6.9-5.5c-45.7-44.4-38.6-24.7-39.2-89.5c-0.1-14.5-0.5-29.1,0.3-43.5c0.2-3.8,3.7-8.6,7-10.9
		c5.4-3.7,11.2-3.4,15.2,3.3c1.5,2.5,3.7,4.7,5.5,7c18.1,22.4,43.4,22.8,62,0.5C340.3,449.1,346.4,439.3,360.3,449.4z"/>
</g>
</svg>
