<?xml version="1.0" encoding="utf-8"?>
<!-- Generator: Adobe Illustrator 24.0.1, SVG Export Plug-In . SVG Version: 6.00 Build 0)  -->
<svg version="1.1" xmlns="http://www.w3.org/2000/svg" xmlns:xlink="http://www.w3.org/1999/xlink" x="0px" y="0px"
	 viewBox="0 0 600 600" style="enable-background:new 0 0 600 600;" xml:space="preserve">
<style type="text/css">
	.st0{fill:#FFFFFF;}
	.st1{fill:#5198E5;}
</style>
<g id="Back">
</g>
<g id="Camada_1">
	<g>
		<g>
			<circle class="st0" cx="275.27" cy="295.4" r="155.14"/>
			<path class="st1" d="M275.27,458.53c-89.95,0-163.14-73.18-163.14-163.14s73.18-163.14,163.14-163.14s163.14,73.18,163.14,163.14
				S365.23,458.53,275.27,458.53z M275.27,148.26c-81.13,0-147.14,66.01-147.14,147.14c0,81.13,66.01,147.14,147.14,147.14
				c81.13,0,147.14-66,147.14-147.14C422.41,214.27,356.41,148.26,275.27,148.26z"/>
		</g>
		<path class="st1" d="M274.75,393.46c-24.54,0-49.09,0.01-73.63-0.01c-7.66,0-10.17-2.64-9.82-10.21
			c1.91-41.41,35.45-73.43,77.01-73.64c14.76-0.07,29.55-0.6,43.46,5.73c29.41,13.39,45.11,36.31,47.44,68.42
			c0.51,6.97-2.28,9.68-9.32,9.69C324.83,393.47,299.79,393.46,274.75,393.46z M344.97,379.29c-3.95-24.54-16.67-41.63-38.99-51.27
			c-13.67-5.91-28.15-5.23-42.57-4.37c-14.06,0.84-26.35,6.22-36.81,15.5c-11.96,10.6-19,23.86-20.84,40.14
			C252.19,379.29,298.2,379.29,344.97,379.29z"/>
		<path class="st1" d="M275.01,295.17c-27.25-0.14-48.84-21.94-48.66-49.14c0.17-26.98,22.47-48.96,49.39-48.7
			c26.73,0.27,48.48,22.35,48.43,49.17C324.11,273.66,302.24,295.31,275.01,295.17z M275.64,211.31
			c-19.17-0.23-35.33,15.53-35.57,34.68c-0.23,19.09,15.36,35.01,34.79,35.53c18.83,0.5,35.17-15.46,35.57-34.74
			C310.82,227.84,294.83,211.54,275.64,211.31z"/>
	</g>
</g>
</svg>
