<?xml version="1.0" encoding="utf-8"?>
<!-- Generator: Adobe Illustrator 24.0.1, SVG Export Plug-In . SVG Version: 6.00 Build 0)  -->
<svg version="1.1" id="Camada_1" xmlns="http://www.w3.org/2000/svg" xmlns:xlink="http://www.w3.org/1999/xlink" x="0px" y="0px"
	 viewBox="0 0 600 600" style="enable-background:new 0 0 600 600;" xml:space="preserve">
<style type="text/css">
	.st0{fill:#FFFFFF;}
	.st1{fill:#1875EF;}
</style>
<g id="Background">
</g>
<g>
	<path d="M415.9,481.1c-53.7,0-107.5,0-161.3,0c-16.8,0-22.3-5.8-21.5-22.4c4.2-90.7,77.6-160.8,168.7-161.3
		c32.3-0.2,64.7-1.3,95.2,12.5c64.4,29.3,98.8,79.5,103.9,149.8c1.1,15.3-5,21.2-20.4,21.2C525.6,481.1,470.7,481.1,415.9,481.1z
		 M569.7,450.1c-8.7-53.7-36.5-91.2-85.4-112.3c-29.9-12.9-61.7-11.5-93.2-9.6c-30.8,1.8-57.7,13.6-80.6,33.9
		c-26.2,23.2-41.6,52.3-45.6,87.9C366.5,450.1,467.3,450.1,569.7,450.1z"/>
	<path class="st0" d="M569.5,450.1c-102.4,0-203.2,0-304.9,0c4-35.7,19.4-64.7,45.6-87.9c22.9-20.3,49.8-32.1,80.6-33.9
		c31.6-1.9,63.3-3.4,93.2,9.6C533,358.9,560.8,396.3,569.5,450.1z"/>
	<g>
		<path class="st1" d="M418.3,61.6c52,0.6,95.3,44.8,94.2,96.1c-1.1,52.2-45.3,95.4-96.3,94.1c-52.6-1.4-94.8-44.5-94.2-96.2
			C322.6,103.6,366.4,61,418.3,61.6z"/>
		<path d="M418.5,267.2c-0.9,0-1.9,0-2.8,0c-60.9-1.6-109.9-51.8-109.1-111.7c0.4-29.2,12.3-56.7,33.6-77.5
			c21.3-20.8,49.1-32,78.3-31.6c29.1,0.4,57.6,12.8,78.3,34.2c20.6,21.3,31.7,48.9,31.1,77.6c-0.6,29.4-13.4,58.1-35,78.7
			C472.2,256.4,445.9,267.2,418.5,267.2z M417.1,76.9c-20.7,0-40.3,8.1-55.5,22.9c-15.4,15-24,34.9-24.3,55.9
			c-0.5,43.3,35,79.5,79.3,80.7c20.1,0.5,39.7-7.2,55-21.9c15.8-15.1,25.1-35.9,25.5-57.2c0.4-20.5-7.6-40.2-22.5-55.6
			c-15-15.5-35.7-24.6-56.6-24.8l0,0C417.8,76.9,417.4,76.9,417.1,76.9z"/>
	</g>
	<path d="M183.8,555.7c-53.7,0-107.5,0-161.3,0c-16.8,0-22.3-5.8-21.5-22.4C5.3,442.6,78.7,372.5,169.7,372
		c32.3-0.2,64.7-1.3,95.2,12.5c64.4,29.3,98.8,79.5,103.9,149.8c1.1,15.3-5,21.2-20.4,21.2C293.5,555.7,238.7,555.7,183.8,555.7z
		 M337.6,524.6c-8.7-53.7-36.5-91.2-85.4-112.3c-29.9-12.9-61.7-11.5-93.2-9.6c-30.8,1.8-57.7,13.6-80.6,33.9
		c-26.2,23.2-41.6,52.3-45.6,87.9C134.4,524.6,235.2,524.6,337.6,524.6z"/>
	<path class="st0" d="M337.4,524.6c-102.4,0-203.2,0-304.9,0c4-35.7,19.4-64.7,45.6-87.9c22.9-20.3,49.8-32.1,80.6-33.9
		c31.6-1.9,63.3-3.4,93.2,9.6C300.9,433.5,328.8,470.9,337.4,524.6z"/>
	<g>
		<path class="st1" d="M186.2,136.2c52,0.6,95.3,44.8,94.2,96.1c-1.1,52.2-45.3,95.4-96.3,94.1c-52.6-1.4-94.8-44.5-94.2-96.2
			C90.6,178.2,134.3,135.6,186.2,136.2z"/>
		<path d="M186.5,341.7c-0.9,0-1.8,0-2.8,0c-60.9-1.6-109.9-51.8-109.1-111.7c0.4-29.2,12.3-56.7,33.6-77.5
			c21.3-20.8,49.2-31.9,78.3-31.6l0,0c29.1,0.4,57.6,12.8,78.3,34.2c20.6,21.3,31.7,48.9,31.1,77.6c-0.6,29.4-13.4,58.1-35,78.7
			C240.1,331,213.8,341.7,186.5,341.7z M185.1,151.5c-42.8,0-79.3,35.9-79.9,78.8c-0.5,43.3,35,79.5,79.3,80.7
			c20.1,0.5,39.7-7.2,55-21.9c15.8-15.1,25.1-35.9,25.5-57.2c0.4-20.5-7.6-40.2-22.5-55.6c-15-15.5-35.7-24.6-56.6-24.8l0,0
			C185.7,151.5,185.4,151.5,185.1,151.5z"/>
	</g>
</g>
</svg>
