<?xml version="1.0" encoding="utf-8"?>
<!-- Generator: Adobe Illustrator 24.0.1, SVG Export Plug-In . SVG Version: 6.00 Build 0)  -->
<svg version="1.1" id="Camada_1" xmlns="http://www.w3.org/2000/svg" xmlns:xlink="http://www.w3.org/1999/xlink" x="0px" y="0px"
	 viewBox="0 0 600 600" style="enable-background:new 0 0 600 600;" xml:space="preserve">
<style type="text/css">
	.st0{fill:#1875EF;}
</style>
<g id="Back">
</g>
<g id="Camada_1_1_">
	<path d="M13.2,486.5c1.9-4.2,4.8-7.6,8-10.8c31.6-31.6,63.2-63.2,94.8-94.7c22.3-22.3,49.1-33.6,80.9-33.4
		c60.6,0.3,121.2,0,181.9,0.2c4.3,0,7.4-1.4,10.3-4.4c20.7-20.9,41.5-41.8,62.5-62.5c28.7-28.3,69.2-35.8,106.1-19.7
		c9.5,4.2,18,10,25.5,17.3c9.5,9.3,9.8,19,0.4,28.5c-26.1,26.2-52.3,52.3-78.4,78.5C454.6,435.8,404,486.3,353.5,537
		c-5.9,5.9-12.2,8.5-20.5,8.5c-48-0.2-96.1,0-144.1-0.2c-4.7,0-8.1,1.4-11.4,4.7c-13.5,13.8-27.3,27.4-40.9,41.1
		c-3.2,3.2-6.6,6.1-10.8,8c-3.8,0-7.5,0-11.3,0c-3.9-2.3-7.2-5.3-10.4-8.5c-27.5-27.5-55-55-82.5-82.5c-3.2-3.2-6.2-6.5-8.5-10.4
		C13.2,494,13.2,490.2,13.2,486.5z M348,384.7c-0.3-0.5-0.6-0.9-0.9-1.4c-0.9-0.1-1.8-0.3-2.7-0.3c-50.9,0-101.7-0.1-152.6,0
		c-19,0-35,7.5-48.5,20.5c-10.1,9.8-19.8,20-30,29.7c-3.4,3.2-3.4,5.1,0,8.4c21.4,21.1,42.6,42.3,63.7,63.7c3.5,3.5,7,4.9,11.9,4.9
		c44.9-0.1,89.7-0.2,134.6,0c5.3,0,9.1-1.5,12.8-5.3c68-68.2,136.1-136.2,204.2-204.3c0.9-0.9,1.8-1.9,2.8-2.8c2.8-2.4,2-4-1.1-5.2
		c-9-3.6-18.3-5.4-28-4.7c-16.1,1.3-29,8.7-40.3,20.1c-46.1,46.5-92.6,92.7-138.9,139c-4.4,4.4-9.2,7.9-15.6,7.9
		c-30,0.1-60.1,0.2-90.1,0c-6.4,0-11.6-3-14.9-8.7c-7.3-12.2,1.3-26.4,16.3-26.5c19.9-0.2,39.9-1.3,59.7,0.3
		c16.4,1.3,28.3-3.5,38.4-16.2C334.2,396.8,341.5,391,348,384.7z M83.9,463.5c-0.6,0.5-1.6,1-2.4,1.7c-8,7.9-15.9,16-23.9,23.8
		c-2.7,2.6-1.1,4.1,0.8,6c19.7,19.6,39.3,39.2,58.9,58.9c2.5,2.5,4.2,2.9,6.8,0.1c7.3-7.6,14.7-15,22.3-22.3
		c2.7-2.6,3.1-4.5,0.2-7.4c-19.6-19.4-39-39-58.6-58.4C86.9,464.9,85.9,463.7,83.9,463.5z"/>
	<g>
		<circle class="st0" cx="292.5" cy="157.9" r="143.7"/>
		<path d="M292.5,316.6c-87.5,0-158.7-71.2-158.7-158.7S205-0.9,292.5-0.9s158.7,71.2,158.7,158.7S380,316.6,292.5,316.6z
			 M292.5,29.2c-70.9,0-128.6,57.7-128.6,128.6s57.7,128.6,128.6,128.6s128.6-57.7,128.6-128.6S363.4,29.2,292.5,29.2z"/>
	</g>
	<path d="M286.6,194.1c4.3,0.2,8.6,0.6,12.9,0.7c5.8,0,10.1-4,10.2-9c0.1-4.9-3.7-9-9.2-9.6c-8.2-0.9-16.5-0.4-24.6-2.2
		c-21.4-4.9-35-21.8-35.5-44.7c-0.4-19,13.7-36.9,33.4-42.2c3.1-0.8,5.1-1.7,5.9-5.5c1.7-8.3,9-13.5,17.2-13.3
		c8,0.2,14.9,5.5,16.4,13.6c0.7,3.7,2.1,5.3,5.6,6.4c8.3,2.6,12.6,9.6,11.8,18.2c-0.7,8.2-6.7,14.5-15.3,15.5
		c-9.2,1.1-18.3-0.4-27.5-0.7c-7.9-0.2-12,2.4-12.4,8.1c-0.4,6,4.2,10.1,11.8,10.7c7.5,0.6,15,0.3,22.4,2
		c19.4,4.6,34.2,21.4,34.9,39.9c0.8,22.4-11.6,40.6-32.4,46.4c-4,1.1-6.1,2.7-7.2,7c-2,7.8-9,12.5-16.8,12.3
		c-7.9-0.2-15-5.6-16.5-13.6c-0.7-3.7-2.3-5.3-5.7-6.5c-8.6-3.1-12.8-10.2-11.6-18.9c1-8.1,7.1-14.2,15.9-14.9
		c5.4-0.4,10.8,0.5,16.3,0.8C286.6,194.4,286.6,194.2,286.6,194.1z"/>
</g>
</svg>
