<?xml version="1.0" encoding="utf-8"?>
<!-- Generator: Adobe Illustrator 24.0.1, SVG Export Plug-In . SVG Version: 6.00 Build 0)  -->
<svg version="1.1" id="Camada_1" xmlns="http://www.w3.org/2000/svg" xmlns:xlink="http://www.w3.org/1999/xlink" x="0px" y="0px"
	 viewBox="0 0 600 600" style="enable-background:new 0 0 600 600;" xml:space="preserve">
<style type="text/css">
	.st0{fill:#FFFFFF;}
</style>
<g id="Back">
</g>
<g id="Vetor">
	<path class="st0" d="M243.8,300.1c28,29.1,55.6,57.9,83.2,86.6c46.4,48.4,92.9,96.8,139.3,145.2c7.3,7.6,7.2,15.6,0.1,23
		c-11.9,12.4-23.8,24.8-35.8,37c-10.5,10.7-17.4,10.8-27.6,0.3c-48.4-50.4-96.8-101-145.2-151.5c-36.7-38.3-73.5-76.4-110.3-114.7
		c-4.2-4.3-7.8-9.3-12.4-13.1c-8.6-6.9-8.1-18.1,0.4-26.7c16.8-16.9,33.2-34.2,49.7-51.4c60.7-63.3,121.4-126.7,182.1-190
		c12.3-12.9,24.7-25.7,37.1-38.5c8-8.2,15.7-8.4,23.8-0.4c12.9,12.9,25.7,26,38.3,39.2c7.3,7.7,6.7,15.6-1.3,24
		c-21.9,22.8-43.8,45.6-65.8,68.5c-43.9,45.6-87.7,91.2-131.5,136.9C260,282.8,252.1,291.3,243.8,300.1z"/>
</g>
</svg>
