<?xml version="1.0" encoding="utf-8"?>
<!-- Generator: Adobe Illustrator 24.0.1, SVG Export Plug-In . SVG Version: 6.00 Build 0)  -->
<svg version="1.1" xmlns="http://www.w3.org/2000/svg" xmlns:xlink="http://www.w3.org/1999/xlink" x="0px" y="0px"
	 viewBox="0 0 600 600" style="enable-background:new 0 0 600 600;" xml:space="preserve">
<style type="text/css">
	.st0{fill:#0071BC;}
	.st1{fill:#FCFCFC;}
</style>
<g id="Back">
</g>
<g id="Forma">
	<circle class="st0" cx="287.5" cy="311.5" r="184.5"/>
</g>
<g id="Vetor">
	<g>
		<path class="st1" d="M195.51,232.45c3.79-10.5,11.32-14.38,22.34-14.17c23.64,0.44,47.3,0.13,70.95,0.13c1,0,2,0.04,3-0.01
			c4.07-0.17,7.07,1.21,7.01,5.75c-0.06,4.27-2.95,5.44-6.82,5.41c-10.49-0.09-20.99-0.03-31.48-0.03
			c-14.99,0-29.98-0.02-44.97,0.01c-6.45,0.01-8.94,2.35-8.94,8.55c-0.02,48.8-0.02,97.6,0,146.41c0,6.3,2.44,8.72,8.83,8.72
			c48.64,0.03,97.27,0.03,145.91,0c6.54,0,8.94-2.47,8.95-9.15c0.04-23.48,0.01-46.97,0.02-70.45c0-1.33,0-2.67,0.03-4
			c0.07-3.41,1.87-5.29,5.22-5.44c3.41-0.15,5.2,1.91,5.75,5.05c0.26,1.46,0.13,2.99,0.13,4.49c0.01,22.49-0.3,44.98,0.13,67.45
			c0.22,11.57-3.69,19.62-15.06,23.29c-52,0-104,0-156,0c-7.65-2.35-12.91-7.09-15-15C195.51,337.12,195.51,284.78,195.51,232.45z"
			/>
		<path class="st1" d="M399.04,219.39c-4.22-7.91-10.15-14.04-18.15-17.94c-4.1-2.26-8.5-3.86-13.17-4.9c-1.36,0-2.72,0-4.09,0
			c-2.03,1.28-4.39,2.24-6.05,3.89c-29.22,29.13-58.4,58.31-87.45,87.62c-1.89,1.9-3.31,4.71-3.94,7.34
			c-2.82,11.89-5.33,23.85-7.84,35.81c-0.82,3.9-0.28,6.96,1.35,8.97c-0.06,0.3-0.13,0.6-0.19,0.9c0.29-0.06,0.57-0.12,0.86-0.18
			c2.04,1.86,5.31,2.49,9.52,1.6c11.03-2.34,22.04-4.77,33.1-6.93c4.59-0.9,8.28-2.88,11.59-6.21c27.85-28,55.84-55.86,83.67-83.89
			c2.51-2.53,4.17-5.89,6.23-8.87c0-1.09,0-2.18,0-3.27C403.29,228.29,401.48,223.64,399.04,219.39z"/>
	</g>
</g>
</svg>
