<?xml version="1.0" encoding="utf-8"?>
<!-- Generator: Adobe Illustrator 24.0.1, SVG Export Plug-In . SVG Version: 6.00 Build 0)  -->
<svg version="1.1" xmlns="http://www.w3.org/2000/svg" xmlns:xlink="http://www.w3.org/1999/xlink" x="0px" y="0px"
	 viewBox="0 0 600 600" style="enable-background:new 0 0 600 600;" xml:space="preserve">
<style type="text/css">
	.st0{fill:#F22525;}
	.st1{fill:#F9EAEA;}
</style>
<g id="Back">
</g>
<g id="Forma">
	<circle class="st0" cx="300.2" cy="299.63" r="215"/>
</g>
<g id="Camada_1">
	<g>
		<path class="st1" d="M303.16,146.87c3.59,1.5,7.53,2.47,10.7,4.6c7.32,4.91,10.03,12.34,10.02,20.97
			c-0.03,37.66,0,75.31-0.03,112.97c0,2.37-0.15,4.75-0.43,7.09c-1.9,15.58-20.29,24.83-34.05,17.25
			c-8.49-4.67-12.71-11.95-12.74-21.4c-0.13-39.05-0.13-78.09-0.02-117.14c0.03-12.48,7.66-21.45,19.77-23.97
			c0.31-0.06,0.59-0.24,0.89-0.37C299.23,146.87,301.2,146.87,303.16,146.87z"/>
		<path class="st1" d="M300.06,452.4c-26.61-0.21-51.54-6.76-74.65-19.87c-17.55-9.95-32.49-22.98-44.92-38.96
			c-14.11-18.15-23.59-38.44-28.46-60.82c-4.38-20.15-4.52-40.45-0.66-60.75c3.1-16.3,8.73-31.7,16.94-46.08
			c9.24-16.2,21.03-30.33,35.5-42.2c3.5-2.87,7.1-5.19,11.71-5.65c9.58-0.96,17.84,5.44,19.25,14.93c1.13,7.6-2.34,13.24-8.04,17.84
			c-13.14,10.6-23.45,23.54-30.78,38.68c-11.79,24.33-14.85,49.84-9.07,76.3c5.19,23.74,16.82,43.93,34.73,60.26
			c22.47,20.49,49.05,30.78,79.57,30.65c21.4-0.1,41.23-5.79,59.45-16.89c15.17-9.24,27.61-21.36,37.21-36.38
			c15.45-24.17,21.09-50.54,17.35-78.85c-2.65-20.02-10.33-38.08-22.59-54.2c-6.04-7.94-13.1-14.8-20.71-21.19
			c-10.11-8.47-8.18-24.21,3.8-29.74c6.83-3.15,13.44-1.81,19.29,2.89c15.03,12.07,27.39,26.48,36.93,43.21
			c9.24,16.21,15.28,33.6,18.09,52.09c2.79,18.34,2.32,36.6-1.53,54.7c-3.79,17.84-10.63,34.5-20.52,49.88
			c-8.92,13.88-19.74,26.04-32.59,36.39c-17.73,14.29-37.64,24.19-59.81,29.39c-6.2,1.45-12.52,2.52-18.84,3.31
			C311.21,452.04,305.62,452.08,300.06,452.4z"/>
	</g>
</g>
</svg>
