<?xml version="1.0" encoding="utf-8"?>
<!-- Generator: Adobe Illustrator 24.0.1, SVG Export Plug-In . SVG Version: 6.00 Build 0)  -->
<svg version="1.1" xmlns="http://www.w3.org/2000/svg" xmlns:xlink="http://www.w3.org/1999/xlink" x="0px" y="0px"
	 viewBox="0 0 1000 1000" style="enable-background:new 0 0 1000 1000;" xml:space="preserve">
<style type="text/css">
	.st0{fill:#E12723;}
	.st1{fill:#FBE3CE;}
	.st2{fill:#FFFFFF;}
</style>
<g id="Layer_3">
</g>
<g id="normal">
	<g id="XMLID_29_">
		<path id="XMLID_37_" class="st0" d="M448.4,791.4c0.8-23.9,5.3-45.4,11.6-64.3c1-3.1-0.9-6.4-4.1-7.1
			c-97.1-19.4-171.7-101.5-179.5-202.3c-0.2-2-1.4-3.8-3.3-4.6c-18.1-8-40.2-14.3-65.8-15.1c-39.1-1.3-71.4,10.8-94.1,23.6
			c-1.8,1-2.9,3-2.8,5.1C123.2,716,270.8,868.2,458,888.2c4,0.4,7.1-3.6,5.6-7.4C454,855.9,447.2,825.9,448.4,791.4z"/>
		<path id="XMLID_40_" class="st1" d="M792,551.7c-24.1-0.8-45.9-5.4-64.9-11.8c-3.1-1.1-6.4,0.9-7.1,4.1
			C700.8,641,618.8,715.5,518.2,723.6c-2,0.2-3.8,1.4-4.6,3.2c-8.1,18.2-14.4,40.5-15.3,66.2c-1.3,38.9,10.7,71.1,23.4,93.8
			c1,1.8,3,2.9,5.1,2.8c189.1-12.8,341.2-160.3,361.4-347.3c0.4-4-3.6-7.1-7.4-5.6C856,546.2,826.2,552.8,792,551.7z"/>
		<path id="XMLID_38_" class="st1" d="M474.1,110.4c-189.5,12.4-342.1,160.1-362.3,347.4c-0.4,4,3.6,7.1,7.4,5.6
			c25-9.7,55.2-16.5,89.8-15.4c23.7,0.8,45.2,5.2,64,11.5c3.1,1,6.4-0.9,7.1-4.1c19.5-96.7,101.2-170.9,201.6-179.1
			c2-0.2,3.7-1.4,4.5-3.2c8.3-18.4,14.9-41,15.8-67.2c1.3-38.4-10.4-70.1-22.8-92.8C478.2,111.4,476.2,110.3,474.1,110.4z"/>
		<path id="XMLID_39_" class="st0" d="M542.8,111.9c-4-0.4-7.1,3.6-5.6,7.4c9.4,24.7,16,54.4,14.9,88.4c-0.8,24.3-5.4,46.2-12,65.3
			c-1.1,3.1,0.8,6.4,4.1,7.1c96.9,19.3,171.2,101,179.4,201.5c0.2,2,1.4,3.7,3.2,4.5c18.3,8.2,40.8,14.8,66.9,15.6
			c38.6,1.3,70.4-10.5,93.1-23c1.8-1,2.9-3,2.8-5.1C876.9,284.5,729.6,132.3,542.8,111.9z"/>
	</g>
</g>
<g id="negativo">
	<g id="XMLID_1_">
		<path id="XMLID_5_" class="st2" d="M448.4,791.4c0.8-23.9,5.3-45.4,11.6-64.3c1-3.1-0.9-6.4-4.1-7.1
			c-97.1-19.4-171.7-101.5-179.5-202.3c-0.2-2-1.4-3.8-3.3-4.6c-18.1-8-40.2-14.3-65.8-15.1c-39.1-1.3-71.4,10.8-94.1,23.6
			c-1.8,1-2.9,3-2.8,5.1C123.2,716,270.8,868.2,458,888.2c4,0.4,7.1-3.6,5.6-7.4C454,855.9,447.2,825.9,448.4,791.4z"/>
		<path id="XMLID_4_" class="st2" d="M792,551.7c-24.1-0.8-45.9-5.4-64.9-11.8c-3.1-1.1-6.4,0.9-7.1,4.1
			C700.8,641,618.8,715.5,518.2,723.6c-2,0.2-3.8,1.4-4.6,3.2c-8.1,18.2-14.4,40.5-15.3,66.2c-1.3,38.9,10.7,71.1,23.4,93.8
			c1,1.8,3,2.9,5.1,2.8c189.1-12.8,341.2-160.3,361.4-347.3c0.4-4-3.6-7.1-7.4-5.6C856,546.2,826.2,552.8,792,551.7z"/>
		<path id="XMLID_3_" class="st2" d="M474.1,110.4c-189.5,12.4-342.1,160.1-362.3,347.4c-0.4,4,3.6,7.1,7.4,5.6
			c25-9.7,55.2-16.5,89.8-15.4c23.7,0.8,45.2,5.2,64,11.5c3.1,1,6.4-0.9,7.1-4.1c19.5-96.7,101.2-170.9,201.6-179.1
			c2-0.2,3.7-1.4,4.5-3.2c8.3-18.4,14.9-41,15.8-67.2c1.3-38.4-10.4-70.1-22.8-92.8C478.2,111.4,476.2,110.3,474.1,110.4z"/>
		<path id="XMLID_2_" class="st2" d="M542.8,111.9c-4-0.4-7.1,3.6-5.6,7.4c9.4,24.7,16,54.4,14.9,88.4c-0.8,24.3-5.4,46.2-12,65.3
			c-1.1,3.1,0.8,6.4,4.1,7.1c96.9,19.3,171.2,101,179.4,201.5c0.2,2,1.4,3.7,3.2,4.5c18.3,8.2,40.8,14.8,66.9,15.6
			c38.6,1.3,70.4-10.5,93.1-23c1.8-1,2.9-3,2.8-5.1C876.9,284.5,729.6,132.3,542.8,111.9z"/>
	</g>
</g>
</svg>
