<?xml version="1.0" encoding="utf-8"?>
<!-- Generator: Adobe Illustrator 24.0.1, SVG Export Plug-In . SVG Version: 6.00 Build 0)  -->
<svg version="1.1" id="Camada_1" xmlns="http://www.w3.org/2000/svg" xmlns:xlink="http://www.w3.org/1999/xlink" x="0px" y="0px"
	 viewBox="0 0 320 1953.4" style="enable-background:new 0 0 320 1953.4;" xml:space="preserve">
<style type="text/css">
	.st0{fill:#D4EAFF;}
	.st1{fill:#E3F0FF;}
	.st2{fill:url(#SVGID_1_);}
</style>
<g transform="matrix(1 0 0 1 0 -1566 )">
	<path class="st0" d="M313,1652.8c2.1,2,4.8,2.8,7,3.2c0,22,0,44.1,0,66.3H0v-72.7c3.7-1.5,9.9-4.4,16.4-9.2
		c24.7-18.2,19.8-38.5,41-56.9c14-12.1,33.7-18.5,51.1-15.9c6.7,1,12.9,4.1,25.3,10.2c30.6,15,33.2,23.6,51.6,27.5
		c7.1,1.5,18.3,3.9,31.1,0c11.1-3.4,16.9-9.6,33.2-12.7c5.3-1,8.4-1.6,12.6-1.4c20,1.2,33,18,35.4,21.3c1.8,2.4,4.6,6.3,6.9,12.2
		C309.5,1637.7,306.5,1647.1,313,1652.8z"/>
</g>
<g transform="matrix(1 0 0 1 0 -3432 )">
	<path class="st1" d="M320,5299.1L320,5299.1v43.9c-14.1,9.4-28.5,20.9-37.6,26.8c-23.6,15.1-48.9,15.4-61.6,15.6
		c-10.5,0.2-22.7-2.3-46.7-7.4c-11.2-2.3-20-4.4-26.9-6.1c-11.4-2.9-18-5-23.2-6.4c-6.3-1.7-10.4-2.4-18-2.2
		c-19.8,0.5-40.6,10.4-58.8,7.8c-9.6-1.3-18.4-4.8-18.4-4.8c-5.4-2.1-9.2-3.5-13.3-6.6C7,5353.6,4.9,5347,0,5344.5V5299h320V5299.1z
		"/>
</g>
<g transform="matrix(1 0 0 1 0 -1587 )">
	
		<linearGradient id="SVGID_1_" gradientUnits="userSpaceOnUse" x1="-361.5076" y1="-65.4456" x2="686.0289" y2="-1136.2979" gradientTransform="matrix(1 0 0 1 0 3183.8108)">
		<stop  offset="0" style="stop-color:#002B89"/>
		<stop  offset="0.19" style="stop-color:#012F8C"/>
		<stop  offset="0.37" style="stop-color:#063B96"/>
		<stop  offset="0.55" style="stop-color:#0D4FA7"/>
		<stop  offset="0.73" style="stop-color:#166BBE"/>
		<stop  offset="0.91" style="stop-color:#238EDB"/>
		<stop  offset="1" style="stop-color:#2AA2EC"/>
	</linearGradient>
	<path class="st2" d="M316.4,1685.5c1.2,1.3,2.4,2.5,3.6,3.5v1803.1c-17.2,8.9-29.3,21.5-48.6,29.8c-25.4,11-64.5,13.4-94.5,5.7
		c-18.8-4.7-34.9-13.1-55.9-14.2c-34-1.6-45.5,9.5-70.9,4.8c-17.4-3.2-34.8-12.9-41.7-22.4c-2-2.6-3.8-6.3-8.4-10.3V1678.4
		c25-12.7,37-41.2,59.8-58.2c23.6-17.5,59.6-21.4,87.4-9.2c17.4,7.6,32.3,21,51.6,22.6c31.5,2.6,42-15.2,65.6-7.7
		c16.2,5.2,32.2,20.6,38.7,35.8C305.6,1667.5,307.8,1676.1,316.4,1685.5z"/>
</g>
</svg>
