<?xml version="1.0" encoding="utf-8"?>
<!-- Generator: Adobe Illustrator 19.0.0, SVG Export Plug-In . SVG Version: 6.00 Build 0)  -->
<svg version="1.1" id="Camada_1" xmlns="http://www.w3.org/2000/svg" xmlns:xlink="http://www.w3.org/1999/xlink" x="0px" y="0px"
	 viewBox="10 2 320 248" style="enable-background:new 10 2 320 248;" xml:space="preserve">
<style type="text/css">
	.st0{fill:#F3F3F3;}
	.st1{fill:#1875EF;}
</style>
<g id="Background">
</g>
<g id="Vetor">
	<g id="XMLID_9_">
		<path id="XMLID_3_" class="st0" d="M295.5,229H45.6c-8.3,0-15.1-6.8-15.1-15.1V20.4c0-8.3,6.8-15.1,15.1-15.1h249.8
			c8.3,0,15.1,6.8,15.1,15.1v193.5C310.5,222.2,303.8,229,295.5,229z"/>
		<path id="XMLID_34_" class="st1" d="M295.5,5.7H45.6c-8.3,0-15.1,6.8-15.1,15.1v8.7h280v-8.7C310.5,12.5,303.8,5.7,295.5,5.7z
			 M46.5,23.9c-2.9,0-5.2-2.3-5.2-5.2s2.3-5.2,5.2-5.2s5.2,2.3,5.2,5.2S49.4,23.9,46.5,23.9z M61,23.9c-2.9,0-5.2-2.3-5.2-5.2
			s2.3-5.2,5.2-5.2s5.2,2.3,5.2,5.2S63.9,23.9,61,23.9z M75.5,23.9c-2.9,0-5.2-2.3-5.2-5.2s2.3-5.2,5.2-5.2s5.2,2.3,5.2,5.2
			S78.4,23.9,75.5,23.9z"/>
	</g>
</g>
</svg>
