<?xml version="1.0" encoding="utf-8"?>
<!-- Generator: Adobe Illustrator 24.0.1, SVG Export Plug-In . SVG Version: 6.00 Build 0)  -->
<svg version="1.1" id="Camada_1" xmlns="http://www.w3.org/2000/svg" xmlns:xlink="http://www.w3.org/1999/xlink" x="0px" y="0px"
	 viewBox="0 0 146 104" style="enable-background:new 0 0 146 104;" xml:space="preserve">
<style type="text/css">
	.st0{fill:#FFFFFF;stroke:#1459AD;stroke-width:4;stroke-miterlimit:10;}
	.st1{fill:#1159AF;}
	.st2{fill:#1158AB;}
</style>
<g>
	<path class="st0" d="M142.4,14.2c0.6-3.3-2.1-5.9-5.3-5.8h-41c-1.6-0.1-3.2-0.8-4.4-1.8C90.6,5.5,89.9,4,90,2.3V1.8H50.5v0.7
		c0,1.6-0.6,3.1-1.8,4.2c-1.2,1.1-2.7,1.7-4.4,1.8H9.5c-3.2-0.1-6,2.6-5.5,5.8v81c-0.5,3.3,2.1,6,5.5,5.6h127.8
		c3.2,0.4,6-2.3,5.1-5.6V14.2z"/>
	<ellipse class="st1" cx="71.3" cy="55.2" rx="31.8" ry="31.4"/>
	<g>
		<path class="st2" d="M134.7,20.6V22c0,0.7-0.6,1.3-1.4,1.8h-24.8c-0.8-0.5-1.4-1.1-1.4-1.8v-1.4c0-0.7,0.6-1.3,1.4-0.7h24.8
			C134.1,19.3,134.7,19.9,134.7,20.6z"/>
	</g>
</g>
</svg>
