<?xml version="1.0" encoding="utf-8"?>
<!-- Generator: Adobe Illustrator 19.0.0, SVG Export Plug-In . SVG Version: 6.00 Build 0)  -->
<svg version="1.1" id="Layer_1" xmlns="http://www.w3.org/2000/svg" xmlns:xlink="http://www.w3.org/1999/xlink" x="0px" y="0px"
	 viewBox="0 0 116 107.5" style="enable-background:new 0 0 116 107.5;" xml:space="preserve">
<style type="text/css">
	.st0{fill:#71B9E7;}
</style>
<g id="XMLID_796_">
	<path id="XMLID_878_" class="st0" d="M29.2,42l4.9,0c0,1,0,0.6,0,0.7v1.2c0,0.7,0.2,1.2,0.7,1.2l47.2,0c0.3,0,1-0.5,1-0.8v-1.5
		c0,0-0.1-0.1-0.1-1.1h3.7c0.2,0,0.4,0.4,0.4,0.4v-4.4c0-0.2-0.2-1.1-0.4-1.1h0c0.2,0,0.2,0.3,0,0.2l-14-7.1
		c-0.2-0.1-0.5-0.2-0.7-0.3l-13.8-7.2c-0.2-0.1-0.5-0.1-0.7,0l-13.7,7.3c-0.2,0.1-0.5,0.3-0.7,0.4l-13.5,6.9c0,0-0.6,0.3-0.6,0.7
		v-0.2c0,0.2,0-0.1,0,0.4L29.2,42C29.1,42,29,42,29.2,42z"/>
	<path id="XMLID_877_" class="st0" d="M85.6,76.6H29.3c-0.6,0-0.2,2.3-0.2,2.9v5.1l0,0h57c0,0,0,1.3,0,1.3v-6.4
		C86.1,78.8,86.1,76.6,85.6,76.6z"/>
	<path id="XMLID_828_" class="st0" d="M33.6,75.7L82,75.9c0,0,0,0.1,0-0.3l0-1.7c0-0.3,0.1-1.8-0.2-1.8l-1.7,0V48.5
		c0-0.2,0.1-2-0.7-2h-5.9c-0.6,0-0.3,1.8-0.3,2v23h-5v-23c0-0.6,0.1-2-1-2h-5.4c-0.8,0-0.6,1.3-0.6,2v23h-5v-23c0-1,0.1-1.5-0.9-1.5
		l-5.2,0c-1.1,0-0.8,1.3-0.8,1.5v23h-5v-23c0-0.9-0.1-2-1.1-2h-6.3c-0.9,0-0.7,1.8-0.7,2v23h-2.3C33.5,71.6,33.6,75.4,33.6,75.7"/>
</g>
<g id="XMLID_53_">
</g>
<g id="XMLID_54_">
</g>
<g id="XMLID_55_">
</g>
<g id="XMLID_56_">
</g>
<g id="XMLID_57_">
</g>
<g id="XMLID_58_">
</g>
</svg>
