<?xml version="1.0" encoding="utf-8"?>
<!-- Generator: Adobe Illustrator 24.0.1, SVG Export Plug-In . SVG Version: 6.00 Build 0)  -->
<svg version="1.1" id="Camada_1" xmlns="http://www.w3.org/2000/svg" xmlns:xlink="http://www.w3.org/1999/xlink" x="0px" y="0px"
	 viewBox="0 0 1093.3 364" style="enable-background:new 0 0 1093.3 364;" xml:space="preserve">
<style type="text/css">
	.st0{fill:#FFFFFF;}
</style>
<g id="XMLID_28_">
	<path id="XMLID_32_" class="st0" d="M432.4,267.7h-11.6V102.6c0-2.4,1.6-4.6,4.1-5.4c2.4-0.8,5,0,6.4,2l105.2,144.9l0.2-147.3h11.6
		v5.8L548,261.9c0,2.4-1.6,4.6-4.1,5.4c-2.4,0.8-5,0-6.4-2L432.4,120.5V267.7z"/>
	<path id="XMLID_31_" class="st0" d="M752.3,267.7h-12.9l-1.2-3.6L673.6,117l-64.7,147.1l-1.2,3.6h-12.9l3.5-8.1l70-159.4
		c0.9-2,2.9-3.3,5.3-3.3s4.4,1.3,5.3,3.3l70,159.3L752.3,267.7z"/>
	<path id="XMLID_30_" class="st0" d="M855.4,267.7c-33.8,0-61.3-24.9-61.3-55.5V97h12.4l-0.6,6l-0.2,109.2
		c0,24.2,22.3,43.9,49.7,43.9s49.7-19.7,49.7-43.9V97h12.4l-0.6,6l-0.2,109.2C916.7,242.8,889.2,267.7,855.4,267.7z"/>
	<polygon id="XMLID_29_" class="st0" points="1033.5,267.7 1021.9,267.7 1021.9,108.4 961.3,108.4 961.3,96.8 1093.6,96.8 
		1093.6,108.4 1033.5,108.4 	"/>
</g>
<g id="XMLID_22_">
	<path id="XMLID_27_" class="st0" d="M158.1,318.4c0.4-11.2,2.5-21.2,5.4-30c0.5-1.5-0.4-3-1.9-3.3c-45.4-9-80.2-47.4-83.9-94.5
		c-0.1-0.9-0.7-1.8-1.5-2.1c-8.5-3.7-18.8-6.7-30.7-7c-18.3-0.6-33.4,5.1-44,11c-0.9,0.5-1.4,1.4-1.3,2.4
		c6,88.4,74.9,159.6,162.4,168.9c1.9,0.2,3.3-1.7,2.6-3.5C160.7,348.6,157.5,334.5,158.1,318.4z"/>
	<path id="XMLID_26_" class="st0" d="M318.6,206.4c-11.3-0.4-21.4-2.5-30.3-5.5c-1.5-0.5-3,0.4-3.3,1.9c-9,45.4-47.3,80.2-94.3,84
		c-0.9,0.1-1.8,0.6-2.1,1.5c-3.8,8.5-6.7,18.9-7.1,30.9c-0.6,18.2,5,33.2,10.9,43.8c0.5,0.9,1.4,1.4,2.4,1.3
		c88.4-6,159.4-74.9,168.8-162.3c0.2-1.9-1.7-3.3-3.4-2.6C348.6,203.8,334.6,206.9,318.6,206.4z"/>
	<path id="XMLID_25_" class="st0" d="M170.1,0.2C81.5,6,10.2,75,0.8,162.6c-0.2,1.9,1.7,3.3,3.5,2.6c11.7-4.5,25.8-7.7,42-7.2
		c11.1,0.4,21.1,2.4,29.9,5.4c1.5,0.5,3-0.4,3.3-1.9c9.1-45.2,47.3-79.9,94.2-83.7c0.9-0.1,1.7-0.6,2.1-1.5c3.9-8.6,7-19.2,7.4-31.4
		c0.6-17.9-4.8-32.8-10.7-43.4C172,0.7,171.1,0.2,170.1,0.2z"/>
	<path id="XMLID_24_" class="st0" d="M202.2,0.9c-1.9-0.2-3.3,1.7-2.6,3.4c4.4,11.5,7.5,25.4,6.9,41.3c-0.4,11.4-2.5,21.6-5.6,30.5
		c-0.5,1.5,0.4,3,1.9,3.3c45.3,9,80,47.2,83.8,94.1c0.1,0.9,0.6,1.7,1.5,2.1c8.6,3.8,19.1,6.9,31.3,7.3c18,0.6,32.9-4.9,43.5-10.7
		c0.9-0.5,1.4-1.4,1.3-2.4C358.3,81.6,289.5,10.4,202.2,0.9z"/>
</g>
</svg>
