<?xml version="1.0" encoding="utf-8"?>
<svg version="1.1" xmlns:xlink="http://www.w3.org/1999/xlink" width="48px" height="36px" xmlns="http://www.w3.org/2000/svg">
  <g transform="matrix(1 0 0 1 -25 -24 )">
    <path d="M 14.7061310782241 13.3298097251586  C 14.8054968287526 13.5285412262156  14.8054968287526 13.6279069767442  14.9048625792812 13.7272727272727  C 15.4016913319239 13.7272727272727  15.7991543340381 13.7272727272727  16.2959830866808 13.7272727272727  C 24.9408033826638 13.7272727272727  33.5856236786469 13.7272727272727  42.23044397463 13.7272727272727  C 44.7145877378436 13.7272727272727  46.2050739957717 14.7209302325581  46.8012684989429 16.6088794926004  C 47.5961945031712 19.1923890063425  46.1057082452431 21.676532769556  43.4228329809725 22.0739957716702  C 42.8266384778013 22.1733615221987  42.23044397463 22.1733615221987  41.6342494714588 22.1733615221987  C 33.1881606765328 22.1733615221987  24.8414376321353 22.1733615221987  16.3953488372093 22.1733615221987  C 15.8985200845666 22.1733615221987  15.4016913319239 22.1733615221987  14.6067653276956 22.1733615221987  C 15.0042283298097 22.6701902748414  15.3023255813954 22.9682875264271  15.5010570824524 23.2663847780127  C 17.1902748414376 24.9556025369979  18.9788583509514 26.6448202959831  20.6680761099366 28.4334038054968  C 22.4566596194503 30.3213530655391  22.5560253699789 32.9048625792812  20.7674418604651 34.5940803382664  C 19.0782241014799 36.2832980972516  16.4947145877379 36.2832980972516  14.7061310782241 34.4947145877378  C 10.2346723044397 30.0232558139535  5.76321353065539 25.5517970401691  1.29175475687104 20.9809725158562  C -0.298097251585624 19.291754756871  -0.397463002114165 16.708245243129  1.19238900634249 15.1183932346723  C 5.76321353065539 10.4482029598309  10.3340380549683 5.87737843551797  14.9048625792812 1.30655391120507  C 16.5940803382664 -0.382663847780128  19.1775898520085 -0.283298097251587  20.8668076109937 1.30655391120507  C 22.5560253699789 2.99577167019027  22.5560253699789 5.47991543340381  20.8668076109937 7.26849894291755  C 18.8794926004228 9.35517970401692  16.7928118393235 11.3424947145877  14.7061310782241 13.3298097251586  Z " fill-rule="nonzero" fill="#ffffff" stroke="none" transform="matrix(1 0 0 1 25 24 )" />
  </g>
</svg>